<?xml version="1.0" standalone="no"?>
<!DOCTYPE svg PUBLIC "-//W3C//DTD SVG 20010904//EN"
 "http://www.w3.org/TR/2001/REC-SVG-20010904/DTD/svg10.dtd">
<svg version="1.0" xmlns="http://www.w3.org/2000/svg"
 width="700.000000pt" height="700.000000pt" viewBox="0 0 700.000000 700.000000"
 preserveAspectRatio="xMidYMid meet">
<metadata>
Created by potrace 1.11, written by Peter Selinger 2001-2013
</metadata>
<g transform="translate(0.000000,700.000000) scale(0.100000,-0.100000)"
fill="#000000" stroke="none">
<path d="M0 3500 l0 -3500 3500 0 3500 0 0 3500 0 3500 -3500 0 -3500 0 0
-3500z m1780 1025 l0 -675 45 0 c44 0 46 1 75 54 70 123 225 256 358 307 121
45 234 61 402 56 129 -4 170 -9 245 -31 390 -116 658 -426 757 -876 21 -96 23
-129 22 -380 0 -245 -2 -286 -22 -373 -111 -497 -402 -806 -830 -882 -92 -17
-315 -19 -398 -4 -140 24 -280 86 -379 166 -41 32 -81 80 -124 146 l-65 97
-43 0 -43 0 0 -180 0 -180 -305 0 -305 0 0 1715 0 1715 305 0 305 0 0 -675z
m2910 -270 l0 -945 58 0 57 0 245 338 c134 185 281 388 327 450 l83 112 336 0
336 0 -4 -22 c-3 -13 -179 -270 -391 -571 -382 -542 -387 -549 -387 -598 0
-49 1 -50 431 -634 270 -366 429 -591 425 -600 -5 -13 -56 -15 -351 -15 l-345
0 -40 53 c-23 28 -179 241 -348 472 l-307 420 -63 3 -62 3 0 -476 0 -475 -307
2 -308 3 -3 1713 -2 1712 310 0 310 0 0 -945z"/>
<path d="M2350 3679 c-159 -14 -269 -65 -381 -178 -119 -119 -172 -247 -185
-445 -29 -464 222 -759 646 -759 428 0 678 299 644 768 -15 201 -65 319 -188
440 -144 142 -307 195 -536 174z"/>
</g>
</svg>
