<svg width="320" height="320" viewBox="0 0 320 320" version="1.1" xmlns="http://www.w3.org/2000/svg" xmlns:xlink="http://www.w3.org/1999/xlink" xmlns:figma="http://www.figma.com/figma/ns">
<title>Group</title>
<desc>Created using Figma</desc>
<g id="Canvas" transform="translate(221 142)" figma:type="canvas">
<g id="Group" style="mix-blend-mode:normal;" figma:type="frame">
<g id="Rectangle" style="mix-blend-mode:normal;" figma:type="rounded-rectangle">
<use xlink:href="#path0_fill" transform="translate(-221 -142)" style="mix-blend-mode:normal;"/>
</g>
<g id="bk" style="mix-blend-mode:normal;" figma:type="text">
<use xlink:href="#path1_fill" transform="translate(-180.5 -154)" fill="#FFFFFF" style="mix-blend-mode:normal;"/>
</g>
</g>
</g>
<defs>
<path id="path0_fill" d="M 0 0L 320 0L 320 320L 0 320L 0 0Z"/>
<path id="path1_fill" d="M 40.992 250.88L 12.768 250.88L 12.768 94.08L 40.992 94.08L 40.992 155.904L 45.024 155.904C 48.0107 149.781 52.3413 145.077 58.016 141.792C 63.6907 138.357 70.9333 136.64 79.744 136.64C 86.3147 136.64 92.512 137.909 98.336 140.448C 104.309 142.987 109.461 146.72 113.792 151.648C 118.272 156.427 121.781 162.325 124.32 169.344C 127.008 176.363 128.352 184.352 128.352 193.312L 128.352 197.344C 128.352 206.453 127.083 214.517 124.544 221.536C 122.005 228.555 118.571 234.528 114.24 239.456C 109.909 244.235 104.757 247.893 98.784 250.432C 92.96 252.821 86.6133 254.016 79.744 254.016C 74.6667 254.016 70.2613 253.493 66.528 252.448C 62.7947 251.403 59.5093 249.984 56.672 248.192C 53.984 246.4 51.6693 244.384 49.728 242.144C 47.936 239.755 46.368 237.291 45.024 234.752L 40.992 234.752L 40.992 250.88ZM 70.56 227.136C 79.3707 227.136 86.464 224.448 91.84 219.072C 97.3653 213.547 100.128 206.08 100.128 196.672L 100.128 193.984C 100.128 184.576 97.3653 177.184 91.84 171.808C 86.464 166.283 79.3707 163.52 70.56 163.52C 61.7493 163.52 54.5813 166.357 49.056 172.032C 43.68 177.557 40.992 184.875 40.992 193.984L 40.992 196.672C 40.992 205.781 43.68 213.173 49.056 218.848C 54.5813 224.373 61.7493 227.136 70.56 227.136ZM 173.892 180.544L 179.268 180.544L 208.836 139.776L 239.748 139.776L 239.748 141.12L 203.908 191.968L 203.908 196L 243.332 249.536L 243.332 250.88L 211.076 250.88L 179.268 207.424L 173.892 207.424L 173.892 250.88L 145.668 250.88L 145.668 94.08L 173.892 94.08L 173.892 180.544Z"/>
</defs>
</svg>
